<?xml version="1.0" encoding="UTF-8"?>
<svg width="56px" height="56px" viewBox="0 0 56 56" version="1.1" xmlns="http://www.w3.org/2000/svg" xmlns:xlink="http://www.w3.org/1999/xlink">
    <!-- Generator: Sketch 61 (89581) - https://sketch.com -->
    <title>编组</title>
    <desc>Created with Sketch.</desc>
    <g id="新版设计" stroke="none" stroke-width="1" fill="none" fill-rule="evenodd">
        <g id="首页" transform="translate(-521.000000, -236.000000)" fill="#000000">
            <g id="编组-6备份" transform="translate(473.000000, 236.000000)">
                <g id="编组" transform="translate(48.000000, 0.000000)">
                    <path d="M9.75784677,42.8096318 L46.0007124,42.8096318 C46.8370905,42.8096318 47.3948617,43.3671244 47.3948617,44.2035025 C47.3948617,45.0398806 46.5584836,45.5976517 46.0007124,45.5976517 L9.75784677,45.5976517 C8.92146866,45.5976517 8.36369751,45.0398806 8.36369751,44.2035025 C8.36369751,43.3671244 8.92146866,42.8096318 9.75784677,42.8096318 M45.1643343,12.1425274 C46.279598,12.1425274 47.3948617,12.9789055 47.3948617,14.0941692 L47.3948617,32.7730945 C47.3948617,34.1669652 47.3948617,35.5608358 45.1643343,35.5608358 C42.9340856,35.5608358 42.9340856,33.8883582 42.9340856,32.7730945 L42.9340856,14.3727761 C42.9340856,13.2575124 43.7704637,12.1425274 45.1643343,12.1425274 M18.9577274,12.1425274 C20.6304836,12.1425274 21.7457473,13.2575124 21.7457473,14.9305473 L21.7457473,33.0519801 C21.7457473,34.7244577 20.6304836,35.8397214 18.9577274,35.8397214 C17.2852498,35.8397214 16.1699861,34.7244577 16.1699861,33.0519801 L16.1699861,14.9305473 C16.1699861,13.2575124 17.5641353,12.1425274 18.9577274,12.1425274 M36.2430607,12.1425274 C36.8005532,12.1425274 37.3580458,12.7000199 37.3580458,13.2575124 L37.3580458,34.7244577 C37.3580458,35.2819502 36.8005532,35.8397214 36.2430607,35.8397214 C35.6855682,35.8397214 35.1280756,35.2819502 35.1280756,34.7244577 L35.1280756,13.2575124 C35.1280756,12.7000199 35.6855682,12.1425274 36.2430607,12.1425274 M28.4367721,12.1425274 C28.9945433,12.1425274 29.5520358,12.7000199 29.5520358,13.2575124 L29.5520358,34.7244577 C29.5520358,35.2819502 28.9945433,35.8397214 28.4367721,35.8397214 C27.8792796,35.8397214 27.3217871,35.2819502 27.3217871,34.7244577 L27.3217871,13.2575124 C27.3217871,12.7000199 27.8792796,12.1425274 28.4367721,12.1425274 M10.5942249,13.2575124 L10.5942249,34.7244577 C10.5942249,35.2819502 10.0364537,35.8397214 9.47896119,35.8397214 C8.92146866,35.8397214 8.36369751,35.2819502 8.36369751,34.7244577 L8.36369751,13.2575124 C8.36369751,12.7000199 8.92146866,12.1425274 9.47896119,12.1425274 C10.0364537,12.1425274 10.5942249,12.7000199 10.5942249,13.2575124" id="Fill-1"></path>
                    <g transform="translate(0.000000, 1.750000)" id="Fill-3">
                        <path d="M5.57576119,0.841567164 L50.1826866,0.841567164 C53.2493134,0.841567164 55.7584478,3.07209453 55.7584478,5.86011443 L55.7584478,46.0059851 C55.7584478,48.794005 53.2493134,51.0242537 50.1826866,51.0242537 L5.57576119,51.0242537 C2.50913433,51.0242537 0,48.794005 0,46.0059851 L0,5.86011443 C0,3.07209453 2.50913433,0.841567164 5.57576119,0.841567164 L5.57576119,0.841567164 Z M6.37564179,3.80789552 C4.49420896,3.80789552 3.15020896,5.15217413 3.15020896,6.76502985 L3.15020896,45.0612289 C3.15020896,46.673806 4.49420896,48.017806 6.37564179,48.017806 L49.382806,48.017806 C51.2645174,48.017806 52.6082388,46.673806 52.6082388,45.0612289 L52.6082388,6.76502985 C52.6082388,5.15217413 51.2645174,3.80789552 49.382806,3.80789552 L6.37564179,3.80789552 Z"></path>
                    </g>
                </g>
            </g>
        </g>
    </g>
</svg>