<?xml version="1.0" encoding="UTF-8"?>
<svg width="40px" height="40px" viewBox="0 0 40 40" version="1.1" xmlns="http://www.w3.org/2000/svg" xmlns:xlink="http://www.w3.org/1999/xlink">
    <!-- Generator: Sketch 61 (89581) - https://sketch.com -->
    <title>编组</title>
    <desc>Created with Sketch.</desc>
    <defs>
        <polygon id="path-1" points="0 2.53164557e-05 39.9999494 2.53164557e-05 39.9999494 40 0 40"></polygon>
        <polygon id="path-3" points="0 40 40 40 40 0 0 0"></polygon>
    </defs>
    <g id="新版设计" stroke="none" stroke-width="1" fill="none" fill-rule="evenodd">
        <g id="我的账单-已结清" transform="translate(-60.000000, -847.000000)">
            <g id="编组" transform="translate(60.000000, 847.000000)">
                <g>
                    <mask id="mask-2" fill="white">
                        <use xlink:href="#path-1"></use>
                    </mask>
                    <g id="Clip-2"></g>
                    <path d="M19.9999494,2.53164557e-05 C31.0457722,2.53164557e-05 39.9999494,8.9544557 39.9999494,20.0000253 C39.9999494,31.0455949 31.0457722,40.0000253 19.9999494,40.0000253 C8.95437975,40.0000253 -5.06329114e-05,31.0455949 -5.06329114e-05,20.0000253 C-5.06329114e-05,8.9544557 8.95437975,2.53164557e-05 19.9999494,2.53164557e-05" id="Fill-1" fill="#F8C705" mask="url(#mask-2)"></path>
                </g>
                <path d="M11.7147342,16.3924304 L28.2853671,16.3924304 L28.2853671,28.2278734 C28.2853671,28.7873671 27.8322025,29.2405316 27.2727089,29.2405316 L12.7273924,29.2405316 C12.1678987,29.2405316 11.7147342,28.7873671 11.7147342,28.2278734 L11.7147342,16.3924304 Z" id="Fill-3" fill="#FFFFFF"></path>
                <path d="M28.3328608,13.1805316 L11.6095696,13.1805316 L9.87336709,17.7098987 C9.87336709,19.0661013 11.0019747,20.1911646 12.3908354,20.1911646 C13.7796962,20.1911646 14.9366582,19.094962 14.9366582,17.7101519 C14.9366582,19.0661013 16.0647595,20.1911646 17.4536203,20.1911646 C18.8422278,20.1911646 19.9996962,19.094962 19.9996962,17.7101519 C19.9996962,19.0661013 21.1280506,20.1911646 22.5166582,20.1911646 C23.905519,20.1911646 25.0341266,19.094962 25.0341266,17.7101519 C25.0341266,19.0661013 26.1627342,20.1911646 27.5804557,20.1911646 C28.9693165,20.1911646 30.1265316,19.094962 30.1265316,17.7101519 L28.3328608,13.1802785 L28.3328608,13.1805316 Z" id="Fill-5" fill="#FFFFFF"></path>
                <path d="M25.0340506,17.3304304 C25.2436709,17.3304304 25.4137975,17.5003038 25.4137975,17.7101772 C25.4137975,18.8689114 26.3859494,19.811443 27.5806329,19.811443 C28.7510127,19.811443 29.7077215,18.9063797 29.745443,17.7795443 L28.0750633,13.5603038 L11.8707595,13.5603038 L10.2540506,17.777519 C10.2905063,18.9051139 11.2350633,19.811443 12.3910127,19.811443 C13.5851899,19.811443 14.5568354,18.8689114 14.5568354,17.7101772 C14.5568354,17.5003038 14.726962,17.3304304 14.9365823,17.3304304 C15.1462025,17.3304304 15.3163291,17.5003038 15.3163291,17.7101772 C15.3163291,18.8689114 16.2750633,19.811443 17.4537975,19.811443 C18.6479747,19.811443 19.6198734,18.8689114 19.6198734,17.7101772 C19.6198734,17.5003038 19.79,17.3304304 19.9996203,17.3304304 C20.2092405,17.3304304 20.3793671,17.5003038 20.3793671,17.7101772 C20.3793671,18.8689114 21.3381013,19.811443 22.5168354,19.811443 C23.6953165,19.811443 24.6543038,18.8689114 24.6543038,17.7101772 C24.6543038,17.5003038 24.8244304,17.3304304 25.0340506,17.3304304 M27.5806329,20.5709367 C26.4917722,20.5709367 25.5398734,19.9863797 25.0360759,19.1218228 C24.5370886,19.9863797 23.594557,20.5709367 22.5168354,20.5709367 C21.4388608,20.5709367 20.4965823,19.9866329 19.9975949,19.1218228 C19.4937975,19.9866329 18.5421519,20.5709367 17.4537975,20.5709367 C16.3758228,20.5709367 15.4335443,19.9866329 14.934557,19.1218228 C14.4310127,19.9866329 13.4793671,20.5709367 12.3910127,20.5709367 C10.7932911,20.5709367 9.4935443,19.2873924 9.4935443,17.7099241 C9.4935443,17.6633418 9.50189873,17.6172658 9.51886076,17.5739747 L11.2550633,13.0446076 C11.3112658,12.8977722 11.4525316,12.8008101 11.6097468,12.8008101 L28.3327848,12.8008101 C28.4887342,12.8008101 28.628481,12.8957468 28.6859494,13.0408101 L30.4796203,17.5704304 C30.4970886,17.6149873 30.5062025,17.6623291 30.5062025,17.7101772 C30.5062025,19.2876456 29.1937975,20.5709367 27.5806329,20.5709367" id="Fill-7" fill="#F8C705"></path>
                <polygon id="Fill-9" fill="#000000" points="26.0130886 27.0063038 26.0130886 27.0063038 26.0710633 27.0523797"></polygon>
                <mask id="mask-4" fill="white">
                    <use xlink:href="#path-3"></use>
                </mask>
                <g id="Clip-12"></g>
                <polygon id="Fill-11" fill="#FFFFFF" mask="url(#mask-4)" points="11.7146835 12.721519 28.2855696 12.721519 28.2855696 10.8860759 11.7146835 10.8860759"></polygon>
            </g>
        </g>
    </g>
</svg>