<?xml version="1.0" encoding="UTF-8"?>
<svg width="40px" height="40px" viewBox="0 0 40 40" version="1.1" xmlns="http://www.w3.org/2000/svg" xmlns:xlink="http://www.w3.org/1999/xlink">
    <!-- Generator: Sketch 61 (89581) - https://sketch.com -->
    <title>编组 20备份</title>
    <desc>Created with Sketch.</desc>
    <g id="新版设计" stroke="none" stroke-width="1" fill="none" fill-rule="evenodd">
        <g id="我的-已登录" transform="translate(-29.000000, -704.000000)">
            <g id="编组-20备份" transform="translate(29.000000, 704.000000)">
                <path d="M8.27833471,20.1067178 C7.06634242,19.7431905 6.00848288,18.8985837 5.29602273,17.725648 L5.29602273,34.0914652 C5.30048243,35.8456925 6.54960857,37.2663629 8.09189186,37.2715909 L32.3235465,37.2715909 C33.8658298,37.2663629 35.1149559,35.8456925 35.1195521,34.0914652 L35.1195521,17.3948864 C34.4490496,18.6687069 33.3860022,19.6133705 32.1370581,20.0452758 L8.27833471,20.1067178 Z" id="Stroke-2" stroke="#27313E" stroke-width="4" fill="#FFFFFF" stroke-linecap="round" stroke-linejoin="round"></path>
                <path d="M30.5139422,21.341892 C28.4677119,21.3424356 26.5317421,20.4211645 25.2501281,18.8372938 C23.969244,20.4215268 22.0335023,21.343115 19.9874088,21.343115 C17.9413153,21.343115 16.005756,20.4215268 14.7246895,18.8372938 C12.9286325,21.0559991 9.91779301,21.9073369 7.21396792,20.9613355 C4.51000598,20.01547 2.70199688,17.4779434 2.70340909,14.6315599 C2.70340909,14.5211342 2.71572813,14.4108896 2.74081846,14.3031815 L5.13261109,3.86301493 C5.28516029,3.18660084 5.8890617,2.70517554 6.58725713,2.70340909 L33.3877429,2.70340909 C34.0857559,2.70517554 34.6896573,3.18660084 34.8423889,3.86301493 L37.2341359,14.3031815 C37.2590894,14.4108896 37.2715909,14.5211342 37.2715909,14.6315599 C37.2673008,18.3355317 34.2445092,21.3372721 30.5139422,21.341892 Z" id="Stroke-3" stroke="#27313E" stroke-width="4" fill="#FFFFFF" stroke-linecap="round" stroke-linejoin="round"></path>
                <path d="M24.4327943,4.73078738 L31.8401413,2.94963143 L31.8401413,13.8154845 C31.8401413,15.8609669 30.1819502,17.519158 28.1364678,17.519158 C26.0909854,17.519158 24.4327943,15.8609669 24.4327943,13.8154845 L24.4327943,4.73078738 L24.4327943,4.73078738 Z" id="矩形" fill="#EDFD6D" transform="translate(28.136468, 10.234395) rotate(90.000000) translate(-28.136468, -10.234395) "></path>
                <rect id="矩形" fill="#27313E" x="14.8022727" y="28.6295455" width="10.3704545" height="3.45681818" rx="1.72840909"></rect>
            </g>
        </g>
    </g>
</svg>