<?xml version="1.0" encoding="UTF-8"?>
<svg width="40px" height="40px" viewBox="0 0 40 40" version="1.1" xmlns="http://www.w3.org/2000/svg" xmlns:xlink="http://www.w3.org/1999/xlink">
    <!-- Generator: Sketch 61 (89581) - https://sketch.com -->
    <title>编组 5</title>
    <desc>Created with Sketch.</desc>
    <g id="新版设计" stroke="none" stroke-width="1" fill="none" fill-rule="evenodd">
        <g id="我的-已登录" transform="translate(-28.000000, -601.000000)">
            <g id="编组-5" transform="translate(28.000000, 601.000000)">
                <path d="M24,6.87366832 L31.792081,5 L31.792081,16.4302202 C31.792081,18.5819439 30.0477642,20.3262607 27.8960405,20.3262607 C25.7443167,20.3262607 24,18.5819439 24,16.4302202 L24,6.87366832 L24,6.87366832 Z" id="矩形" fill="#EDFD6D"></path>
                <g id="编组" transform="translate(2.000000, 0.000000)" fill="#27313E">
                    <g id="Fill-1">
                        <path d="M32.3297802,32.6571429 C32.3283956,34.4442857 30.8798901,35.8925934 29.0929451,35.893978 L6.9032967,35.893978 C5.11615385,35.8925934 3.66784615,34.4442857 3.66646024,32.6571429 L3.66646024,10.4754066 C3.66487912,8.68589011 5.11378022,7.23362637 6.9032967,7.23065934 L9.3150989,7.23065934 C10.063978,9.31767033 12.0592088,10.8106813 14.4037582,10.8106813 L21.5845714,10.8106813 C23.9273407,10.8106813 25.9211868,9.32024176 26.6714505,7.2358022 L29.0929451,7.2358022 C30.8802857,7.23876923 32.3283956,8.68786813 32.3297802,10.4754066 L32.3297802,32.6571429 Z M14.4037582,3.66646154 L21.5845714,3.66646154 C22.5449011,3.66665934 23.3232528,4.44481319 23.3232528,5.40514286 C23.3234505,6.36547253 22.5450989,7.14421978 21.5845714,7.14441758 L14.4037582,7.14441758 C13.4434286,7.14421978 12.6650769,6.36567033 12.6648791,5.40553846 C12.6648791,4.44520879 13.4434286,3.66665934 14.4037582,3.66646154 L14.4037582,3.66646154 Z M29.0929451,3.56953846 L26.6696703,3.56953846 C25.918022,1.48806593 23.9253626,0 21.5845714,0 L14.4037582,0 C12.0649451,0 10.0734725,1.48549451 9.32043956,3.5641978 L6.9032967,3.5641978 C3.09006593,3.56993407 0.00138461538,6.66217582 0,10.4754066 L0,32.6571429 C0.00435164835,36.468 3.09243956,39.5560879 6.9032967,39.5604396 L29.0929451,39.5604396 C32.9036044,39.5560879 35.9918901,36.468 35.9962418,32.6571429 L35.9962418,10.4754066 C35.9918901,6.66415385 32.904,3.57527473 29.0929451,3.56953846 L29.0929451,3.56953846 Z"></path>
                    </g>
                    <path d="M8.8199011,18.1578857 L19.3194396,18.1578857 C20.2908462,18.1578857 21.068011,17.3732044 21.068011,16.4091165 C21.068011,15.4450286 20.2908462,14.6603473 19.3194396,14.6603473 L8.8199011,14.6603473 C7.85581319,14.6603473 7.07113187,15.4450286 7.07113187,16.4091165 C7.07113187,17.3732044 7.8482967,18.1578857 8.8199011,18.1578857" id="Fill-3"></path>
                    <path d="M26.6421956,20.6242418 L8.81982198,20.6242418 C7.85593187,20.6242418 7.07125055,21.4089231 7.07125055,22.373011 C7.07125055,23.3370989 7.84841538,24.1217802 8.81982198,24.1217802 L26.6421956,24.1217802 C27.6138,24.1217802 28.3909648,23.3370989 28.3909648,22.373011 C28.3909648,21.4089231 27.6138,20.6242418 26.6421956,20.6242418" id="Fill-5"></path>
                    <path d="M26.6421956,26.8511341 L8.81982198,26.8511341 C7.85593187,26.8511341 7.07125055,27.6358154 7.07125055,28.5999033 C7.07125055,29.5639912 7.84841538,30.3486725 8.81982198,30.3486725 L26.6421956,30.3486725 C27.6138,30.3486725 28.3909648,29.5639912 28.3909648,28.5999033 C28.3909648,27.6358154 27.6138,26.8511341 26.6421956,26.8511341" id="Fill-7"></path>
                </g>
            </g>
        </g>
    </g>
</svg>