<?xml version="1.0" encoding="UTF-8"?>
<svg width="100px" height="100px" viewBox="0 0 100 100" version="1.1" xmlns="http://www.w3.org/2000/svg" xmlns:xlink="http://www.w3.org/1999/xlink">
    <!-- Generator: Sketch 61 (89581) - https://sketch.com -->
    <title>icon_dangmianfu</title>
    <desc>Created with Sketch.</desc>
    <defs>
        <rect id="path-1" x="0" y="0" width="100" height="100" rx="10"></rect>
    </defs>
    <g id="新版设计" stroke="none" stroke-width="1" fill="none" fill-rule="evenodd">
        <g id="我的账单-已结清" transform="translate(-60.000000, -596.000000)">
            <g id="icon_dangmianfu" transform="translate(60.000000, 596.000000)">
                <mask id="mask-2" fill="white">
                    <use xlink:href="#path-1"></use>
                </mask>
                <use id="4" fill="#F7F7F7" xlink:href="#path-1"></use>
                <g id="分组-3" mask="url(#mask-2)" fill="#E3E3E3">
                    <g transform="translate(25.000000, 26.000000)" id="形状结合">
                        <path d="M50,35.8478261 L50,46.0588275 C50,47.2460731 48.9777771,47.9585353 47.9556227,47.9585353 L47.9556227,47.9585353 L36.5083979,47.9585353 L36.5083979,43.7367832 L45.7007383,43.7367832 L45.7007383,35.8478261 L50,35.8478261 Z M4.29926167,35.8478261 L4.29926167,43.7769996 L13.4916021,43.7769996 L13.4916021,47.9585353 L2.04437726,47.9585353 C1.02222294,47.9585353 -1.31095135e-12,47.2460731 -1.31095135e-12,46.0588275 L-1.31095135e-12,35.8478261 L4.29926167,35.8478261 Z M27.173913,15.8152174 L27.173913,32.6847826 L22.826087,32.6847826 L22.826087,15.8152174 L27.173913,15.8152174 Z M39.1304348,15.8152174 L39.1304348,32.6847826 L34.7826087,32.6847826 L34.7826087,15.8152174 L39.1304348,15.8152174 Z M19.5652174,15.8152174 L19.5652174,32.6847826 L18.4782609,32.6847826 L18.4782609,15.8152174 L19.5652174,15.8152174 Z M31.5217391,15.8152174 L31.5217391,32.6847826 L30.4347826,32.6847826 L30.4347826,15.8152174 L31.5217391,15.8152174 Z M15.2173913,15.8152174 L15.2173913,32.6847826 L10.8695652,32.6847826 L10.8695652,15.8152174 L15.2173913,15.8152174 Z M47.9556227,-9.64561764e-13 C48.9777771,-9.64561764e-13 50,0.712462183 50,1.89970784 L50,12.1107092 L45.7007383,12.1107092 L45.7007383,4.22175212 L36.5083979,4.22175212 L36.5083979,-9.64561764e-13 L47.9556227,-9.64561764e-13 Z M13.4916021,-9.64561764e-13 L13.4916021,4.18153573 L4.29926167,4.18153573 L4.29926167,12.1107092 L-1.31095135e-12,12.1107092 L-1.31095135e-12,1.89970784 C-1.31095135e-12,0.712462183 1.02222294,-9.64561764e-13 2.04437726,-9.64561764e-13 L2.04437726,-9.64561764e-13 L13.4916021,-9.64561764e-13 Z"></path>
                    </g>
                </g>
            </g>
        </g>
    </g>
</svg>