<?xml version="1.0" encoding="UTF-8"?>
<svg width="201px" height="53px" viewBox="0 0 201 53" version="1.1" xmlns="http://www.w3.org/2000/svg" xmlns:xlink="http://www.w3.org/1999/xlink">
    <!-- Generator: Sketch 61 (89581) - https://sketch.com -->
    <title>编组333</title>
    <desc>Created with Sketch.</desc>
    <g id="新版设计" stroke="none" stroke-width="1" fill="none" fill-rule="evenodd">
        <g id="首页" transform="translate(-275.000000, -111.000000)" fill="#000000">
            <g id="编组333" transform="translate(275.000000, 111.000000)">
                <path d="M54.2318293,35.439845 C56.5114883,32.9107196 58.7350925,29.9578335 60.8984165,26.5795409 L48.7429579,26.5795409 C43.3070429,33.4798483 37.8595789,36.9088825 32.5011267,36.7868284 C29.3640252,36.7149673 26.3379067,35.3973317 23.6126255,33.5251043 L32.5,19.0316611 L34.3757259,22.0484542 C37.0812893,25.818417 40.2121938,23.8636317 41.5932847,22.9513802 C43.4904185,21.6982001 45.0269982,20.4008611 45.0269982,20.4008611 L32.5,0 L0,53 L11.6706825,53 L18.4423374,41.9567105 C22.3971641,44.5703137 27.0390152,46.4877972 32.227331,46.6161597 C32.4166219,46.6205481 32.6056311,46.6230167 32.7943585,46.6230167 C37.5790229,46.6230167 42.2115785,45.1183229 46.6652655,42.1319747 L53.3295992,53 L65,53 L54.2318293,35.439845 Z" id="Fill-1"></path>
                <path d="M111.482109,4.55671379 L111.482109,10.9461848 C111.482109,11.7802467 110.803087,12.4562121 109.965252,12.4562121 L108.531571,12.4562121 L108.531571,0 L103.519887,0 L103.519887,12.4562121 L102.085476,12.4562121 C101.248128,12.4562121 100.569105,11.7802467 100.569105,10.9461848 L100.569105,0 L95,0 L95,12.4424119 C95,15.5118566 97.4993971,18 100.582724,18 L111.468247,18 C114.551574,18 117.050728,15.5118566 117.050728,12.4424119 L117.050728,4.61360916 L119,0 L113.431138,0 L111.482109,4.55671379 Z" id="Fill-3"></path>
                <polygon id="Fill-5" points="94 26 116 26 116 21 94 21"></polygon>
                <path d="M95.381776,36.4983862 L95.381776,45.4890294 C95.381776,46.546485 94.4737334,47.4038296 93.3537467,47.4038296 L93,47.4038296 L93,53 L95.7656557,53 C98.7559166,53 101.17998,50.7107989 101.17998,47.8877297 L101.17998,37.9692129 C101.17998,37.143666 101.88874,36.4744781 102.763104,36.4744781 L106,36.4744781 L106,31 L101.205302,31 C97.9889168,31 95.381776,33.4620567 95.381776,36.4983862" id="Fill-7"></path>
                <path d="M115.618224,45.4892685 L115.618224,36.4986253 C115.618224,33.4620567 113.011083,31 109.794698,31 L105,31 L105,36.4747172 L108.253608,36.4747172 C109.118604,36.4747172 109.820273,37.1367326 109.820273,37.9539117 L109.820273,47.8877297 C109.820273,50.7110379 112.244083,53 115.234344,53 L118,53 L118,47.4040687 L117.646253,47.4040687 C116.526267,47.4040687 115.618224,46.546724 115.618224,45.4892685" id="Fill-8"></path>
                <polygon id="Fill-9" points="153.869393 13 159.610167 13 159.610167 8.49317119 186.297321 8.49317119 186.297321 13 192.038095 13 192.038095 8.49317119 201 8.49317119 201 2.92396632 192.038095 2.92396632 192.038095 0 186.297321 0 186.297321 2.92396632 159.610167 2.92396632 159.610167 2.92372311 159.610167 0 153.845826 0 153.869393 2.92372311 153.869393 2.92396632 145 2.92396632 145 8.49317119 153.869393 8.49317119"></polygon>
                <path d="M152.247581,23.2493344 C151.629184,24.2177205 150.770355,25.0138935 149.752251,25.56198 L145,28.1204659 L145,34.6563228 L151.015338,31.3882696 L151.015338,53 L156.804149,53 L156.804149,27.1702995 L156.970757,27.0372712 L163,17.0122296 L156.23758,17 L152.247581,23.2493344 Z" id="Fill-10"></path>
                <polygon id="Fill-11" points="182 28.2360012 182 17 177 17 177 31"></polygon>
                <path d="M186.006823,47.2356436 C184.045824,47.2356436 182.455873,45.6275246 182.455873,43.6438086 L182.455873,36.8772729 L192.39923,32.1082988 C195.889459,30.433972 198.449955,27.151778 199.247793,23.3283417 L200.352721,18 L194.535673,18 L193.595986,22.5036394 C193.208515,24.3597229 191.986624,25.9263047 190.292401,26.7389234 L165,38.869548 L165,45.2491585 L176.757779,39.6101689 L176.757779,44.2394269 C176.757779,49.0776296 180.63523,53 185.418026,53 L201,53 L201,47.2356436 L186.006823,47.2356436 Z" id="Fill-12"></path>
                <path d="M84.2679378,5.61790448 C83.4627974,7.57714429 82.3411324,9.31007752 81,10.780195 L81,19 C84.9931787,16.4863716 88.3069563,12.7031758 90.2542487,7.96299075 C91.3318666,5.34008502 91.895004,2.64716179 92,0 L85.5476091,0 C85.4446617,1.86546637 85.0292871,3.76419105 84.2679378,5.61790448" id="Fill-13"></path>
                <path d="M85.5476091,17 C85.4446617,18.8663479 85.0292871,20.7659699 84.2679378,22.6205593 C83.4627974,24.580725 82.3411324,26.3144771 81,27.7852894 L81,36.0089787 C82.5723798,35.0185134 84.0372026,33.828654 85.3570797,32.463418 L85.3570797,53 L91.2209806,53 L91.2209806,22.1011842 C91.676561,20.4022071 91.932905,18.691972 92,17 L85.5476091,17 Z" id="Fill-14"></path>
                <path d="M132.519208,42.4956849 C134.936432,38.8887882 136.295801,34.6160935 136.295801,30.0934791 L136.295801,9.16233263 L138.955615,9.16233263 L138.955615,3.54085699 L129.524973,3.54085699 C129.763992,2.35827998 129.909903,1.17472098 129.957094,0 L123.529871,0 C123.42707,1.83143542 123.013316,3.69552244 122.254936,5.51541933 C121.453191,7.43891753 120.335646,9.14023757 119,10.5835363 L119,18.6533907 C122.585786,16.4286632 125.617775,13.1880536 127.602367,9.16233263 L130.454518,9.16233263 L130.454518,30.4465092 C130.454518,33.0687024 129.849191,35.5794384 128.740574,37.8363266 C127.342687,35.3378657 126.566961,32.5077333 126.566961,29.5789096 L126.566961,14.6195683 C124.925718,16.8501879 122.937299,18.7282685 120.725677,20.2120749 L120.725677,29.0896267 C120.725677,34.0084792 122.38248,38.7149737 125.276465,42.5813646 C123.678843,44.1272827 121.760318,45.3965214 119.584154,46.2903896 L119.584154,52 L121.361104,51.316526 C124.287485,50.1909051 126.877659,48.5590618 129.047191,46.5525844 C130.660374,47.8986649 132.469976,49.0493268 134.447936,49.9503144 L139,52 L139,46.2970181 L136.946278,45.3579778 C135.308862,44.6121466 133.823478,43.6407002 132.519208,42.4956849" id="Fill-15"></path>
            </g>
        </g>
    </g>
</svg>