<?xml version="1.0" encoding="UTF-8"?>
<svg width="203px" height="68px" viewBox="0 0 203 68" version="1.1" xmlns="http://www.w3.org/2000/svg" xmlns:xlink="http://www.w3.org/1999/xlink">
    <!-- Generator: Sketch 61 (89581) - https://sketch.com -->
    <title>编组</title>
    <desc>Created with Sketch.</desc>
    <defs>
        <polygon id="path-1" points="0 68 202.612245 68 202.612245 0 0 0"></polygon>
    </defs>
    <g id="新版设计" stroke="none" stroke-width="1" fill="none" fill-rule="evenodd">
        <g id="首页-空白页" transform="translate(-274.000000, -937.000000)">
            <g id="编组-2" transform="translate(274.000000, 937.000000)">
                <g id="编组">
                    <path d="M55.5927268,68 L12.4075153,68 C5.55503663,68 0,62.4449634 0,55.5924847 L0,12.4072732 C0,5.55503663 5.55503663,0 12.4075153,0 L55.5927268,0 C62.4452054,0 68,5.55503663 68,12.4072732 L68,55.5927268 C68,62.4449634 62.4452054,68 55.5927268,68" id="Fill-1" fill="#F0FF5F"></path>
                    <path d="M53.0230267,42.652646 C55.0185336,40.4010719 56.9649726,37.7722415 58.8586453,34.7646894 L48.2183255,34.7646894 C43.4599798,40.9077432 38.6915247,43.9604684 34.0009863,43.8518087 C31.2549144,43.7878338 28.6059918,42.6147982 26.2204081,40.9480328 L34,28.0451292 L35.6419227,30.7308533 C38.0102464,34.0870929 40.7508937,32.3468296 41.959836,31.5346904 C43.6204982,30.4190368 44.9655482,29.2640704 44.9655482,29.2640704 L34,11.1020408 L5.55102041,58.2857143 L15.7669899,58.2857143 L21.6945798,48.4543376 C25.1564501,50.7811187 29.2197094,52.4881737 33.7613183,52.6024494 C33.9270147,52.6063563 34.0924645,52.6085539 34.2576677,52.6085539 C38.445939,52.6085539 42.5010615,51.2689882 46.3996107,48.6103679 L52.2332567,58.2857143 L62.4489796,58.2857143 L53.0230267,42.652646 Z" id="Fill-3" fill="#000000"></path>
                    <path d="M116.120169,12.8936385 L116.120169,19.2976842 C116.120169,20.1336487 115.452694,20.811156 114.629109,20.811156 L113.219809,20.811156 L113.219809,8.32653061 L108.293119,8.32653061 L108.293119,20.811156 L106.883342,20.811156 C106.060235,20.811156 105.39276,20.1336487 105.39276,19.2976842 L105.39276,8.32653061 L99.9183673,8.32653061 L99.9183673,20.7973244 C99.9183673,23.8737706 102.375258,26.3673469 105.406148,26.3673469 L116.106542,26.3673469 C119.137432,26.3673469 121.594083,23.8737706 121.594083,20.7973244 L121.594083,12.9506637 L123.510204,8.32653061 L118.036051,8.32653061 L116.120169,12.8936385 Z" id="Fill-5" fill="#000000"></path>
                    <mask id="mask-2" fill="white">
                        <use xlink:href="#path-1"></use>
                    </mask>
                    <g id="Clip-8"></g>
                    <polygon id="Fill-7" fill="#000000" mask="url(#mask-2)" points="99.9183673 34.6938776 120.734694 34.6938776 120.734694 29.1428571 99.9183673 29.1428571"></polygon>
                    <path d="M99.4311569,43.0187794 L99.4311569,52.0928238 C99.4311569,53.1600887 98.5587517,54.0253865 97.4827205,54.0253865 L97.1428571,54.0253865 L97.1428571,59.6734694 L99.7999707,59.6734694 C102.672874,59.6734694 105.001802,57.3630326 105.001802,54.5137754 L105.001802,44.5032501 C105.001802,43.6700451 105.682745,42.9946495 106.522794,42.9946495 L109.632653,42.9946495 L109.632653,37.4693878 L105.02613,37.4693878 C101.935977,37.4693878 99.4311569,39.9542836 99.4311569,43.0187794" id="Fill-9" fill="#000000" mask="url(#mask-2)"></path>
                    <path d="M119.834149,52.0930651 L119.834149,43.0190207 C119.834149,39.9542836 117.32933,37.4693878 114.239176,37.4693878 L109.632653,37.4693878 L109.632653,42.9948908 L112.758569,42.9948908 C113.589616,42.9948908 114.263747,43.6630474 114.263747,44.487807 L114.263747,54.5137754 C114.263747,57.3632739 116.592432,59.6734694 119.465335,59.6734694 L122.122449,59.6734694 L122.122449,54.0256278 L121.782586,54.0256278 C120.706554,54.0256278 119.834149,53.16033 119.834149,52.0930651" id="Fill-10" fill="#000000" mask="url(#mask-2)"></path>
                    <polygon id="Fill-11" fill="#000000" mask="url(#mask-2)" points="157.06178 20.8163265 162.610055 20.8163265 162.610055 16.4863748 188.402334 16.4863748 188.402334 20.8163265 193.950608 20.8163265 193.950608 16.4863748 202.612245 16.4863748 202.612245 11.1357416 193.950608 11.1357416 193.950608 8.32653061 188.402334 8.32653061 188.402334 11.1357416 162.610055 11.1357416 162.610055 11.1355079 162.610055 8.32676428 157.039004 8.32676428 157.06178 11.1355079 157.06178 11.1357416 148.489796 11.1357416 148.489796 16.4863748 157.06178 16.4863748"></polygon>
                    <path d="M155.753811,31.0021931 C155.134012,31.9356854 154.273236,32.7027318 153.252823,33.2311737 L148.489796,35.6968346 L148.489796,41.9953224 L154.518774,38.845838 L154.518774,59.6734694 L160.320712,59.6734694 L160.320712,34.7811414 L160.487698,34.6529395 L166.530612,24.9916183 L159.752858,24.9795918 L155.753811,31.0021931 Z" id="Fill-12" fill="#000000" mask="url(#mask-2)"></path>
                    <polygon id="Fill-13" fill="#000000" mask="url(#mask-2)" points="184.571429 36.1171165 184.571429 24.9795918 179.020408 24.9795918 179.020408 38.8571429"></polygon>
                    <path d="M187.584966,54.1881271 C185.619507,54.1881271 184.026188,52.6578465 184.026188,50.770149 L184.026188,44.3311362 L193.991912,39.7929964 C197.490329,38.1997127 200.0564,35.0763878 200.856053,31.4377791 L201.963494,26.3673469 L196.133215,26.3673469 L195.191391,30.6532347 C194.803038,32.4194776 193.578368,33.9102316 191.880291,34.6835168 L166.530612,46.2269786 L166.530612,52.2977945 L178.314884,46.9317509 L178.314884,51.3369373 C178.314884,55.9409548 182.201155,59.6734694 186.994829,59.6734694 L202.612245,59.6734694 L202.612245,54.1881271 L187.584966,54.1881271 Z" id="Fill-14" fill="#000000" mask="url(#mask-2)"></path>
                    <path d="M89.3390689,14.0713348 C88.5264597,16.0747417 87.3943896,17.8467403 86.0408163,19.3499986 L86.0408163,27.755102 C90.0710376,25.1848091 93.4155551,21.3163289 95.3809115,16.4692862 C96.4685259,13.7872525 97.0368871,11.0336229 97.1428571,8.32653061 L90.630611,8.32653061 C90.5267087,10.2343058 90.1074809,12.1758333 89.3390689,14.0713348" id="Fill-15" fill="#000000" mask="url(#mask-2)"></path>
                    <path d="M90.630611,24.9795918 C90.5267087,26.7782265 90.1074809,28.6089279 89.3390689,30.3962306 C88.5264597,32.2852792 87.3943896,33.9561287 86.0408163,35.3735782 L86.0408163,43.2989024 C87.6277822,42.3443723 89.1061933,41.1976825 90.4383142,39.8819788 L90.4383142,59.6734694 L96.3566112,59.6734694 L96.3566112,29.895699 C96.8164178,28.2583629 97.0751397,26.6101771 97.1428571,24.9795918 L90.630611,24.9795918 Z" id="Fill-16" fill="#000000" mask="url(#mask-2)"></path>
                    <path d="M136.643149,50.288562 C138.991309,46.7269807 140.31184,42.5079662 140.31184,38.0421718 L140.31184,17.3739944 L142.895658,17.3739944 L142.895658,11.8231443 L133.734712,11.8231443 C133.966653,10.6554247 134.108395,9.48673536 134.154238,8.32653061 L127.91065,8.32653061 C127.810786,10.1351992 127.408854,11.9758667 126.672142,13.7728992 C125.893304,15.6722315 124.807689,17.3521769 123.510204,18.7773428 L123.510204,26.7458113 C126.993539,24.5490342 129.938899,21.3491381 131.866789,17.3739944 L134.637698,17.3739944 L134.637698,38.3907665 C134.637698,40.9800158 134.049419,43.459208 132.972724,45.6877417 C131.614776,43.2206703 130.860966,40.4260944 130.860966,37.5340671 L130.860966,22.7624255 C129.266616,24.9652631 127.335009,26.8197483 125.186576,28.2849128 L125.186576,37.0509312 C125.186576,41.9079856 126.796042,46.5553499 129.607342,50.3731653 C128.055614,51.8996612 126.191656,53.1529538 124.077668,54.0355918 L124.077668,59.6734694 L125.803848,58.9985822 C128.646618,57.8871032 131.162787,56.2757615 133.270333,54.2942501 C134.837425,55.6236615 136.595324,56.759867 138.516771,57.6495351 L142.938776,59.6734694 L142.938776,54.0421371 L140.943979,53.1148945 C139.353346,52.3784335 137.910155,51.419192 136.643149,50.288562" id="Fill-17" fill="#000000" mask="url(#mask-2)"></path>
                </g>
            </g>
        </g>
    </g>
</svg>