<svg width="40" height="40" viewBox="0 0 40 40" xmlns="http://www.w3.org/2000/svg" xmlns:xlink="http://www.w3.org/1999/xlink"><defs><linearGradient x1="50%" y1="0%" x2="50%" y2="100%" id="a"><stop stop-color="#FF9197" offset="0%"/><stop stop-color="#FFF2F2" offset="100%"/></linearGradient><path id="b" d="M0 0h39.898v34.394H0z"/></defs><g fill="none" fill-rule="evenodd"><path d="M13 15h9.09v10.545a4 4 0 0 1-4 4H17a4 4 0 0 1-4-4V15z" fill="url(#a)" transform="rotate(-90 17.545 22.273)"/><g transform="translate(0 2)"><mask id="c" fill="#fff"><use xlink:href="#b"/></mask><path d="M36.72 21.927c0 1.569-1.1 2.852-2.465 2.852h-1.426v-9.89h1.426c.673 0 1.284.326 1.732.836.468.57.733 1.13.733 1.863v4.34zM7.13 18.2v6.58H5.704c-1.365 0-2.466-1.283-2.466-2.852v-4.206c0-.245.041-.643.082-.867.02-.06.02.052.04-.009.062-.204.123-.387.225-.57 0-.02.02-.041.02-.062.224-.427.55-.774.937-.998.163-.102.326-.183.51-.244.02 0 .04-.02.06-.02a2.76 2.76 0 0 1 .592-.062H7.13v3.31zm28.124-6.572C33.119 4.87 27.192 0 20.249 0 13.327 0 7.44 4.829 5.264 11.565 2.321 11.772 0 14.404 0 17.616v4.436c0 3.357 2.55 6.093 5.658 6.093h3.547c.87 0 1.576-.725 1.576-1.596l.049-12.866c.065-1.263-.6-2.136-1.667-2.136h-.082c1.99-4.912 6.26-8.099 11.142-8.156 5.18-.06 9.313 3.242 11.303 8.133h-.601c-.87 0-1.575.725-1.575 1.596l.036 13.43c0 .414.145.766.394 1.056-2.363 2.756-5.573 4.332-9.863 4.332-.58 0-1.25.428-1.25 1.25 0 1.088.849 1.206 1.43 1.206 5.858 0 9.996-2.54 12.732-6.27h1.41c3.129 0 5.657-2.736 5.657-6.093v-4.435c.063-2.985-1.969-5.472-4.642-5.97z" fill="#27313E" mask="url(#c)"/></g></g></svg>