<svg width="40" height="40" viewBox="0 0 40 40" xmlns="http://www.w3.org/2000/svg" xmlns:xlink="http://www.w3.org/1999/xlink"><defs><linearGradient x1="50%" y1="0%" x2="50%" y2="100%" id="a"><stop stop-color="#FF9197" offset="0%"/><stop stop-color="#FFF2F2" offset="100%"/></linearGradient><path id="b" d="M0 0h35.996v39.56H0z"/></defs><g fill="none" fill-rule="evenodd"><path d="M24 6.874L31.792 5v11.43a3.896 3.896 0 0 1-7.792 0V6.874z" fill="url(#a)"/><g transform="translate(2)"><mask id="c" fill="#fff"><use xlink:href="#b"/></mask><path d="M32.33 32.657a3.24 3.24 0 0 1-3.237 3.237H6.903a3.24 3.24 0 0 1-3.237-3.237V10.475a3.242 3.242 0 0 1 3.237-3.244h2.412a5.407 5.407 0 0 0 5.089 3.58h7.18a5.407 5.407 0 0 0 5.087-3.575h2.422a3.242 3.242 0 0 1 3.237 3.24v22.181zM14.404 3.667h7.18a1.739 1.739 0 0 1 0 3.477h-7.18a1.74 1.74 0 0 1 0-3.478zm14.689-.097H26.67A5.407 5.407 0 0 0 21.585 0h-7.181A5.407 5.407 0 0 0 9.32 3.564H6.903A6.914 6.914 0 0 0 0 10.475v22.182a6.911 6.911 0 0 0 6.903 6.903h22.19a6.911 6.911 0 0 0 6.903-6.903V10.475a6.914 6.914 0 0 0-6.903-6.905z" fill="#27313E" mask="url(#c)"/></g><path d="M10.82 18.158h10.5c.97 0 1.748-.785 1.748-1.749 0-.964-.777-1.749-1.749-1.749h-10.5c-.963 0-1.748.785-1.748 1.75 0 .963.777 1.748 1.749 1.748M28.642 20.624H10.82a1.75 1.75 0 0 0-1.749 1.749c0 .964.777 1.749 1.749 1.749h17.822c.972 0 1.749-.785 1.749-1.749 0-.964-.777-1.749-1.749-1.749M28.642 26.851H10.82A1.75 1.75 0 0 0 9.07 28.6c0 .964.777 1.749 1.749 1.749h17.822c.972 0 1.749-.785 1.749-1.75 0-.963-.777-1.748-1.749-1.748" fill="#27313E"/></g></svg>