<svg width="750" height="303" viewBox="0 0 750 303" xmlns="http://www.w3.org/2000/svg" xmlns:xlink="http://www.w3.org/1999/xlink"><defs><path id="a" d="M0 0h750v303H0z"/><path id="c" d="M0 0h1204v749H0z"/><linearGradient x1="12.868%" y1="44.38%" x2="33.307%" y2="53.099%" id="d"><stop stop-color="#FFF" offset="0%"/><stop stop-color="#FFF" stop-opacity="0" offset="100%"/></linearGradient><path id="f" d="M0 0h1204v749H0z"/></defs><g fill="none" fill-rule="evenodd"><mask id="b" fill="#fff"><use xlink:href="#a"/></mask><use fill="#FF5861" xlink:href="#a"/><g mask="url(#b)"><g transform="rotate(40 554.765 391.51)"><mask id="e" fill="#fff"><use xlink:href="#c"/></mask><path d="M983.322 748.842a405.83 405.83 0 0 1-23.884-.038c-4.627-.139-9.254-.353-13.881-.645-32.834-1.987-65.54-7.205-98.082-12.412-24.581-3.938-49.39-8.865-74.326-13.614-5.92-1.126-11.853-2.254-17.786-3.342-15.453-2.85-30.944-5.535-46.461-7.777-32.669-4.712-65.414-7.46-98.032-5.673-26.254 1.443-52.229 5.99-78.42 8.32-3.727.33-7.441.607-11.168.862-16.163 1.075-32.365 1.469-48.553 1.848-26.09.633-52.483 1.939-78.978 3.23-14.224.696-28.485 1.38-42.734 1.95-1.332.063-2.65.113-3.981.164-3.727.152-7.454.293-11.181.407-1.788.062-3.562.125-5.35.176h-.013c-9.888.316-19.776.544-29.651.646-7.302.088-14.591.115-21.868.05-2.814-.012-5.629-.05-8.43-.101-.647 0-1.293-.013-1.94-.037-2.447-.04-4.893-.09-7.327-.164-11.549-.306-23.047-.836-34.482-1.66a568.52 568.52 0 0 1-4.627-.355c-.444-.037-.875-.076-1.318-.102-.672-.063-1.357-.114-2.029-.177a510.524 510.524 0 0 1-10.712-1.051c-45.751-4.977-92.238-16.616-131.093-40.995-6.909-4.331-13.564-9.054-19.94-14.234a190.807 190.807 0 0 1-15.695-14.236C13.934 622.009 1.485 591.435.129 560.99c-.38-8.359.089-16.717 1.306-25 5.273-35.827 24.682-70.351 51.697-98.847.887-.95 1.787-1.885 2.712-2.811 3.892-3.99 7.936-7.84 12.12-11.563.798-.71 1.597-1.406 2.396-2.102 16.467-14.298 34.862-26.455 54.08-35.688 9.343-4.483 18.85-8.689 28.41-12.767.912-.392 1.825-.785 2.75-1.177 8.278-3.52 16.607-6.979 24.898-10.474.608-.266 1.217-.52 1.825-.773 2.865-1.215 5.73-2.444 8.595-3.671a813.679 813.679 0 0 0 11.803-5.206c.583-.254 1.166-.52 1.749-.786 1.382-.62 2.75-1.253 4.12-1.887.824-.38 1.648-.76 2.46-1.14.557-.253 1.102-.519 1.647-.785a292.323 292.323 0 0 0 4.5-2.14c6.327-3.065 12.589-6.268 18.75-9.676.57-.316 1.141-.633 1.711-.962a109.89 109.89 0 0 0 1.75-.975c1.14-.659 2.282-1.317 3.41-1.976.71-.418 1.42-.836 2.117-1.266a69.271 69.271 0 0 0 1.572-.962 114.96 114.96 0 0 0 2.89-1.825c.482-.304.951-.62 1.42-.937a151.809 151.809 0 0 0 8.798-6.282 129.217 129.217 0 0 0 7.036-5.8c10.51-9.232 18.622-19.275 24.999-29.963a136.345 136.345 0 0 0 2.003-3.471c.76-1.38 1.496-2.76 2.218-4.154 0-.013.013-.024.013-.038 20.372-39.98 19.852-88.132 30.032-137.473a299.894 299.894 0 0 1 1.585-7.295c.228-1 .456-1.988.697-2.989 10.585-44.312 34.52-77.923 67.2-99.581 1.801-1.19 3.626-2.354 5.477-3.47C430.565 7.12 466.86-1.467 506.576.205c6.53.278 12.982.723 19.346 1.342 5.26.507 10.47 1.14 15.63 1.887 46.398 6.75 87.776 23.24 119.532 50.557a183.762 183.762 0 0 1 11.663 10.994c17.57 18.11 31.452 40.196 40.617 66.489a194.532 194.532 0 0 1 2.092 6.343c3.106 9.917 5.552 20.404 7.302 31.486 3.296 20.832 13.146 39.31 26.8 55.407h.012c.976 1.139 1.965 2.28 2.992 3.405 25.886 28.749 63.816 49.544 96.966 62.183 27.712 10.575 56.299 16.186 85.101 20.63h.013c2.485.382 4.982.76 7.48 1.128 3.688.544 7.39 1.076 11.092 1.608 24.137 3.446 48.325 6.637 72.195 11.804 1.471.316 2.942.646 4.4.975h.012c9.406 2.14 18.75 4.598 28.029 7.523a253.95 253.95 0 0 1 19.89 7.18c0-.012.013 0 .013 0 1.014.407 2.028.836 3.03 1.254 51.164 21.707 91.312 59.41 111.266 114.044 31.756 87.005-1.521 202.949-79.092 255.203-37.778 25.443-84.087 35.866-129.635 37.195z" fill="url(#d)" opacity=".1" mask="url(#e)" transform="rotate(-3 602 374.5)"/></g></g><g mask="url(#b)"><g transform="rotate(40 483.896 431.488)"><mask id="g" fill="#fff"><use xlink:href="#f"/></mask><path d="M983.322 748.842a405.83 405.83 0 0 1-23.884-.038c-4.627-.139-9.254-.353-13.881-.645-32.834-1.987-65.54-7.205-98.082-12.412-24.581-3.938-49.39-8.865-74.326-13.614-5.92-1.126-11.853-2.254-17.786-3.342-15.453-2.85-30.944-5.535-46.461-7.777-32.669-4.712-65.414-7.46-98.032-5.673-26.254 1.443-52.229 5.99-78.42 8.32-3.727.33-7.441.607-11.168.862-16.163 1.075-32.365 1.469-48.553 1.848-26.09.633-52.483 1.939-78.978 3.23-14.224.696-28.485 1.38-42.734 1.95-1.332.063-2.65.113-3.981.164-3.727.152-7.454.293-11.181.407-1.788.062-3.562.125-5.35.176h-.013c-9.888.316-19.776.544-29.651.646-7.302.088-14.591.115-21.868.05-2.814-.012-5.629-.05-8.43-.101-.647 0-1.293-.013-1.94-.037-2.447-.04-4.893-.09-7.327-.164-11.549-.306-23.047-.836-34.482-1.66a568.52 568.52 0 0 1-4.627-.355c-.444-.037-.875-.076-1.318-.102-.672-.063-1.357-.114-2.029-.177a510.524 510.524 0 0 1-10.712-1.051c-45.751-4.977-92.238-16.616-131.093-40.995-6.909-4.331-13.564-9.054-19.94-14.234a190.807 190.807 0 0 1-15.695-14.236C13.934 622.009 1.485 591.435.129 560.99c-.38-8.359.089-16.717 1.306-25 5.273-35.827 24.682-70.351 51.697-98.847.887-.95 1.787-1.885 2.712-2.811 3.892-3.99 7.936-7.84 12.12-11.563.798-.71 1.597-1.406 2.396-2.102 16.467-14.298 34.862-26.455 54.08-35.688 9.343-4.483 18.85-8.689 28.41-12.767.912-.392 1.825-.785 2.75-1.177 8.278-3.52 16.607-6.979 24.898-10.474.608-.266 1.217-.52 1.825-.773 2.865-1.215 5.73-2.444 8.595-3.671a813.679 813.679 0 0 0 11.803-5.206c.583-.254 1.166-.52 1.749-.786 1.382-.62 2.75-1.253 4.12-1.887.824-.38 1.648-.76 2.46-1.14.557-.253 1.102-.519 1.647-.785a292.323 292.323 0 0 0 4.5-2.14c6.327-3.065 12.589-6.268 18.75-9.676.57-.316 1.141-.633 1.711-.962a109.89 109.89 0 0 0 1.75-.975c1.14-.659 2.282-1.317 3.41-1.976.71-.418 1.42-.836 2.117-1.266a69.271 69.271 0 0 0 1.572-.962 114.96 114.96 0 0 0 2.89-1.825c.482-.304.951-.62 1.42-.937a151.809 151.809 0 0 0 8.798-6.282 129.217 129.217 0 0 0 7.036-5.8c10.51-9.232 18.622-19.275 24.999-29.963a136.345 136.345 0 0 0 2.003-3.471c.76-1.38 1.496-2.76 2.218-4.154 0-.013.013-.024.013-.038 20.372-39.98 19.852-88.132 30.032-137.473a299.894 299.894 0 0 1 1.585-7.295c.228-1 .456-1.988.697-2.989 10.585-44.312 34.52-77.923 67.2-99.581 1.801-1.19 3.626-2.354 5.477-3.47C430.565 7.12 466.86-1.467 506.576.205c6.53.278 12.982.723 19.346 1.342 5.26.507 10.47 1.14 15.63 1.887 46.398 6.75 87.776 23.24 119.532 50.557a183.762 183.762 0 0 1 11.663 10.994c17.57 18.11 31.452 40.196 40.617 66.489a194.532 194.532 0 0 1 2.092 6.343c3.106 9.917 5.552 20.404 7.302 31.486 3.296 20.832 13.146 39.31 26.8 55.407h.012c.976 1.139 1.965 2.28 2.992 3.405 25.886 28.749 63.816 49.544 96.966 62.183 27.712 10.575 56.299 16.186 85.101 20.63h.013c2.485.382 4.982.76 7.48 1.128 3.688.544 7.39 1.076 11.092 1.608 24.137 3.446 48.325 6.637 72.195 11.804 1.471.316 2.942.646 4.4.975h.012c9.406 2.14 18.75 4.598 28.029 7.523a253.95 253.95 0 0 1 19.89 7.18c0-.012.013 0 .013 0 1.014.407 2.028.836 3.03 1.254 51.164 21.707 91.312 59.41 111.266 114.044 31.756 87.005-1.521 202.949-79.092 255.203-37.778 25.443-84.087 35.866-129.635 37.195z" fill="url(#d)" opacity=".088" mask="url(#g)" transform="rotate(-3 602 374.5)"/></g></g></g></svg>