<svg width="40" height="40" viewBox="0 0 40 40" xmlns="http://www.w3.org/2000/svg"><defs><linearGradient x1="50%" y1="0%" x2="50%" y2="100%" id="a"><stop stop-color="#FF9197" offset="0%"/><stop stop-color="#FFF2F2" offset="100%"/></linearGradient></defs><g fill="none" fill-rule="evenodd"><path d="M8.278 20.107c-1.212-.364-2.27-1.208-2.982-2.381V34.09c.004 1.755 1.254 3.175 2.796 3.18h24.232c1.542-.005 2.791-1.425 2.796-3.18V17.395c-.671 1.274-1.734 2.218-2.983 2.65l-23.859.062z" stroke="#27313E" stroke-width="4" fill="#FFF" stroke-linecap="round" stroke-linejoin="round"/><path d="M30.514 21.342a6.768 6.768 0 0 1-5.264-2.505 6.767 6.767 0 0 1-5.263 2.506 6.767 6.767 0 0 1-5.262-2.506 6.785 6.785 0 0 1-7.511 2.124 6.71 6.71 0 0 1-4.51-6.33c0-.11.012-.22.037-.328l2.392-10.44a1.492 1.492 0 0 1 1.454-1.16h26.8a1.492 1.492 0 0 1 1.455 1.16l2.392 10.44c.025.108.038.218.038.329-.005 3.704-3.027 6.705-6.758 6.71z" stroke="#27313E" stroke-width="4" fill="#FFF" stroke-linecap="round" stroke-linejoin="round"/><path d="M24.433 4.73l7.407-1.78v10.865a3.704 3.704 0 1 1-7.407 0V4.731z" fill="url(#a)" transform="rotate(90 28.136 10.234)"/><rect fill="#27313E" x="14.802" y="28.63" width="10.37" height="3.457" rx="1.728"/></g></svg>