<?xml version="1.0" encoding="UTF-8"?>
<svg width="22px" height="22px" viewBox="0 0 22 22" version="1.1" xmlns="http://www.w3.org/2000/svg" xmlns:xlink="http://www.w3.org/1999/xlink">
    <!-- Generator: Sketch 61 (89581) - https://sketch.com -->
    <title>编组 10</title>
    <desc>Created with Sketch.</desc>
    <g id="新版设计" stroke="none" stroke-width="1" fill="none" fill-rule="evenodd">
        <g id="我的-已登录" transform="translate(-520.000000, -396.000000)" fill="#666666" fill-rule="nonzero">
            <g id="编组-7" transform="translate(424.000000, 325.000000)">
                <g id="编组-2" transform="translate(0.000000, 60.000000)">
                    <g id="编组-10备份-5" transform="translate(96.000000, 11.000000)">
                        <g id="更多" transform="translate(5.000000, 0.000000)">
                            <path d="M11.7750221,10.8000154 C11.7750221,11.0062656 11.692522,11.2125158 11.5275218,11.377516 L1.62751027,21.2775276 C1.29750989,21.6075279 0.802509312,21.6075279 0.472508928,21.2775276 C0.142508544,20.9475272 0.142508544,20.4525266 0.472508928,20.1225262 L9.79501978,10.8000154 L0.472508928,1.47750451 C0.142508544,1.14750413 0.142508544,0.652503552 0.472508928,0.322503168 C0.802509312,-0.007497216 1.29750989,-0.007497216 1.62751027,0.322503168 L11.5275218,10.2225147 C11.692522,10.3875149 11.7750221,10.5937651 11.7750221,10.8000154 L11.7750221,10.8000154 Z" id="路径"></path>
                        </g>
                    </g>
                </g>
            </g>
        </g>
    </g>
</svg>