<?xml version="1.0" encoding="UTF-8"?>
<svg width="40px" height="40px" viewBox="0 0 40 40" version="1.1" xmlns="http://www.w3.org/2000/svg" xmlns:xlink="http://www.w3.org/1999/xlink">
    <!-- Generator: Sketch 61 (89581) - https://sketch.com -->
    <title>编组 4</title>
    <desc>Created with Sketch.</desc>
    <g id="新版设计" stroke="none" stroke-width="1" fill="none" fill-rule="evenodd">
        <g id="我的-已登录" transform="translate(-30.000000, -807.000000)">
            <g id="编组-4" transform="translate(30.000000, 807.000000)">
                <path d="M13,16 L22.0909091,16 L22.0909091,26.5454545 C22.0909091,28.7545935 20.3000481,30.5454545 18.0909091,30.5454545 L17,30.5454545 C14.790861,30.5454545 13,28.7545935 13,26.5454545 L13,16 L13,16 Z" id="矩形-3" fill="#EDFD6D" transform="translate(17.545455, 23.272727) rotate(-90.000000) translate(-17.545455, -23.272727) "></path>
                <g id="编组" transform="translate(0.000000, 3.000000)" fill="#27313E">
                    <path d="M36.7201036,21.9272539 C36.7201036,23.4957513 35.62,24.7794819 34.2550259,24.7794819 L32.8291192,24.7794819 L32.8291192,14.8893264 L34.2550259,14.8893264 C34.9275648,14.8893264 35.5385492,15.2151295 35.9868394,15.7245596 C36.4554404,16.2949223 36.7201036,16.8543005 36.7201036,17.5879793 L36.7201036,21.9272539 Z M7.12963731,18.199171 L7.12963731,24.7794819 L5.70352332,24.7794819 C4.33854922,24.7794819 3.23823834,23.4957513 3.23823834,21.9272539 L3.23823834,17.7210363 C3.23823834,17.4764767 3.27906736,17.078342 3.31989637,16.8543005 C3.34020725,16.7933679 3.34020725,16.906114 3.36051813,16.8451813 C3.42165803,16.6412435 3.48279793,16.4578238 3.58476684,16.2746114 C3.58476684,16.2543005 3.60507772,16.2337824 3.60507772,16.2134715 C3.82932642,15.7856995 4.15512953,15.439171 4.54227979,15.2151295 C4.70518135,15.1133679 4.8680829,15.0317098 5.05150259,14.9707772 C5.07202073,14.9707772 5.09233161,14.9504663 5.11264249,14.9504663 C5.29606218,14.9096373 5.49958549,14.8893264 5.70352332,14.8893264 L7.12963731,14.8893264 L7.12963731,18.199171 Z M35.2539896,11.626943 C33.1192746,4.87025907 27.1916062,-0.000207253886 20.248601,-0.000207253886 C13.3265285,-0.000207253886 7.44051813,4.82901554 5.26435233,11.5647668 C2.3211399,11.7720207 -0.000103626943,14.4039378 -0.000103626943,17.6163731 L-0.000103626943,22.0518135 C-0.000103626943,25.4093264 2.54932642,28.1450777 5.65813472,28.1450777 L9.20549223,28.1450777 C10.0757513,28.1450777 10.7806218,27.4196891 10.7806218,26.5492228 L10.8299482,13.6831088 C10.8954404,12.4196891 10.2293264,11.5467358 9.16341969,11.5467358 L9.08051813,11.5467358 C11.0701554,6.63481865 15.340829,3.44849741 20.2226943,3.39088083 C25.4036269,3.33015544 29.5360622,6.63253886 31.5256995,11.5237306 L30.9246632,11.5237306 C30.0541969,11.5237306 29.3495337,12.2491192 29.3495337,13.1195855 L29.3858031,26.5492228 C29.3858031,26.9637306 29.5308808,27.3160622 29.7797927,27.6060104 C27.4168912,30.362487 24.2073575,31.9378238 19.9172021,31.9378238 C19.3368912,31.9378238 18.6662176,32.3662176 18.6662176,33.1875648 C18.6662176,34.2764767 19.5159585,34.3937824 20.0962694,34.3937824 C25.954715,34.3937824 30.0931606,31.854715 32.8291192,28.1241451 L34.2382383,28.1241451 C37.3679793,28.1241451 39.8962694,25.3883938 39.8962694,22.0310881 L39.8962694,17.5958549 C39.9586528,14.6111917 37.9273575,12.1241451 35.2539896,11.626943 L35.2539896,11.626943 Z" id="Fill-1"></path>
                </g>
            </g>
        </g>
    </g>
</svg>