<?xml version="1.0" encoding="UTF-8"?>
<svg width="56px" height="56px" viewBox="0 0 56 56" version="1.1" xmlns="http://www.w3.org/2000/svg" xmlns:xlink="http://www.w3.org/1999/xlink">
    <!-- Generator: Sketch 61 (89581) - https://sketch.com -->
    <title>编组</title>
    <desc>Created with Sketch.</desc>
    <g id="新版设计" stroke="none" stroke-width="1" fill="none" fill-rule="evenodd">
        <g id="首页" transform="translate(-174.000000, -236.000000)" fill="#000000">
            <g id="编组-7备份" transform="translate(126.000000, 236.000000)">
                <g id="编组" transform="translate(48.000000, 0.000000)">
                    <path d="M54.2534287,26.3514287 L1.5502858,26.3514287 C0.694285803,26.3514287 8.82243278e-08,27.0457144 8.82243278e-08,27.9017144 C8.82243278e-08,28.7577144 0.694285803,29.4520001 1.5502858,29.4520001 L54.2534287,29.4520001 C55.1094287,29.4517144 55.803143,28.7571429 55.803143,27.9011429 C55.803143,27.0454287 55.1091429,26.3517144 54.2534287,26.3514287 L54.2534287,26.3514287 Z M54.2534287,34.1019997 C53.3980001,34.1014287 52.7037144,34.7945715 52.7031429,35.6500001 L52.7031429,35.6522858 L52.7031429,52.7028572 L35.6522858,52.7028572 C34.7962858,52.7025715 34.1020001,53.3962858 34.1017143,54.2525715 C34.1014287,55.1085715 34.7951429,55.8031429 35.6514287,55.803429 L35.6522858,55.803429 L54.2534287,55.803429 C55.1088572,55.8040001 55.8031429,55.1108572 55.8037147,54.2554287 L55.8037147,54.2531429 L55.8037147,35.6522858 C55.8042858,34.7968572 55.1111429,34.1025715 54.2557144,34.1019997 L54.2534287,34.1019997 Z M54.2534287,-5.32907052e-15 L35.6522858,-5.32907052e-15 C34.7962858,-0.000285626025 34.1020001,0.693142945 34.1017143,1.54942866 C34.1014287,2.40542866 34.7951429,3.10000009 35.6514287,3.1002858 L35.6522858,3.1002858 L52.7031429,3.1002858 L52.7031429,20.1511429 C52.7028572,21.0071429 53.3965715,21.7017144 54.2528572,21.7020002 C55.1088572,21.7022858 55.8034287,21.0085715 55.8037147,20.1522858 L55.8037147,20.1511429 L55.8037147,1.55000009 C55.8042858,0.694571517 55.1111429,0.000285802546 54.2557144,-5.32907052e-15 L54.2534287,-5.32907052e-15 Z M20.1514287,52.7028572 L3.10057152,52.7028572 L3.10057152,35.6522858 C3.10057152,34.7962858 2.40657152,34.1020001 1.55057152,34.1017144 C0.694285803,34.1017144 -4.04121181e-14,34.7957144 -4.04121181e-14,35.6517144 L-4.04121181e-14,35.6522858 L-4.04121181e-14,54.2531429 C-0.000285626061,55.1088572 0.69342866,55.8031429 1.54914295,55.8034287 L1.5502858,55.8034287 L20.1514287,55.8034287 C21.0074287,55.8031429 21.7011429,55.1085715 21.7008573,54.2525715 C21.7005715,53.3968572 21.0071429,52.7031429 20.1514287,52.7028572 L20.1514287,52.7028572 Z M1.5502858,21.7014287 C2.40600009,21.7017144 3.1002858,21.0080001 3.10057152,20.1522858 L3.10057152,20.1511429 L3.10057152,3.1002858 L20.1514287,3.1002858 C21.0074287,3.1002858 21.7014287,2.4062858 21.7017144,1.5502858 C21.7017144,0.694000088 21.0080001,-1.0658141e-14 20.1520001,-1.0658141e-14 L20.1514287,-1.0658141e-14 L1.5502858,-1.0658141e-14 C0.694571517,-0.000285626025 0.00028580251,0.693142945 -4.04121181e-14,1.54885723 L-4.04121181e-14,1.55000009 L-4.04121181e-14,20.1511429 C-0.000285626061,21.0068572 0.69342866,21.7011429 1.54914295,21.7014287 L1.5502858,21.7014287 Z" id="Fill-1"></path>
                </g>
            </g>
        </g>
    </g>
</svg>