<?xml version="1.0" encoding="UTF-8"?>
<svg width="28px" height="28px" viewBox="0 0 28 28" version="1.1" xmlns="http://www.w3.org/2000/svg" xmlns:xlink="http://www.w3.org/1999/xlink">
    <!-- Generator: Sketch 61 (89581) - https://sketch.com -->
    <title>编组</title>
    <desc>Created with Sketch.</desc>
    <defs>
        <polygon id="path-1" points="7e-05 0 28 0 28 27.999972 7e-05 27.999972"></polygon>
    </defs>
    <g id="新版设计" stroke="none" stroke-width="1" fill="none" fill-rule="evenodd">
        <g id="待还账单-1备份" transform="translate(-103.000000, -362.000000)">
            <g id="编组-4" transform="translate(103.000000, 360.000000)">
                <g id="编组" transform="translate(0.000000, 2.000000)">
                    <mask id="mask-2" fill="white">
                        <use xlink:href="#path-1"></use>
                    </mask>
                    <g id="Clip-2"></g>
                    <path d="M14.96551,21.721672 C14.96551,22.256052 14.53683,22.689632 14.00007,22.689632 C13.46653,22.689632 13.03449,22.256612 13.03449,21.721672 L13.03449,12.071332 C13.03449,11.536952 13.46317,11.103512 14.00007,11.103512 C14.53347,11.103512 14.96551,11.536532 14.96551,12.071332 L14.96551,21.721672 Z M14.00007,6.265812 C14.79989,6.265812 15.44781,6.914012 15.44781,7.713552 C15.44781,8.512952 14.79989,9.161852 14.00007,9.161852 C13.20067,9.161852 12.55219,8.513512 12.55219,7.713972 C12.55219,6.914572 13.20067,6.265812 14.00007,6.265812 L14.00007,6.265812 Z M14.00007,-2.8e-05 C6.26815,-2.8e-05 7e-05,6.268192 7e-05,13.999972 C7e-05,21.731892 6.26815,27.999972 14.00007,27.999972 C21.73185,27.999972 28.00007,21.731892 28.00007,13.999972 C28.00007,6.268192 21.73185,-2.8e-05 14.00007,-2.8e-05 L14.00007,-2.8e-05 Z" id="Fill-1" fill="#E13F3F" mask="url(#mask-2)"></path>
                </g>
            </g>
        </g>
    </g>
</svg>