<?xml version="1.0" encoding="UTF-8"?>
<svg width="100px" height="100px" viewBox="0 0 100 100" version="1.1" xmlns="http://www.w3.org/2000/svg" xmlns:xlink="http://www.w3.org/1999/xlink">
    <!-- Generator: Sketch 61 (89581) - https://sketch.com -->
    <title>icon_fukuanma</title>
    <desc>Created with Sketch.</desc>
    <defs>
        <rect id="path-1" x="7.10542736e-15" y="7.10542736e-15" width="100" height="100" rx="10"></rect>
    </defs>
    <g id="新版设计" stroke="none" stroke-width="1" fill="none" fill-rule="evenodd">
        <g id="首页" transform="translate(-60.000000, -844.000000)">
            <g id="编组-10" transform="translate(30.000000, 734.000000)">
                <g id="编组-2">
                    <g id="icon_fukuanma" transform="translate(30.000000, 110.000000)">
                        <mask id="mask-2" fill="white">
                            <use xlink:href="#path-1"></use>
                        </mask>
                        <use id="4" fill="#F7F7F7" xlink:href="#path-1"></use>
                        <path d="M52.173913,47.826087 L75,47.826087 L75,25 L52.173913,25 L52.173913,47.826087 Z M55.4347826,44.5652174 L70.6521739,44.5652174 L70.6521739,29.3478261 L55.4347826,29.3478261 L55.4347826,44.5652174 Z M25,47.826087 L47.826087,47.826087 L47.826087,25 L25,25 L25,47.826087 Z M29.3478261,44.5652174 L44.5652174,44.5652174 L44.5652174,29.3478261 L29.3478261,29.3478261 L29.3478261,44.5652174 Z M59.7826087,40.2173913 L67.3913043,40.2173913 L67.3913043,32.6086957 L59.7826087,32.6086957 L59.7826087,40.2173913 Z M32.6086957,40.2173913 L40.2173913,40.2173913 L40.2173913,32.6086957 L32.6086957,32.6086957 L32.6086957,40.2173913 Z M25,75 L47.826087,75 L47.826087,52.173913 L25,52.173913 L25,75 Z M29.3478261,70.6521739 L44.5652174,70.6521739 L44.5652174,55.4347826 L29.3478261,55.4347826 L29.3478261,70.6521739 Z M32.6086957,67.3913043 L40.2173913,67.3913043 L40.2173913,59.7826087 L32.6086957,59.7826087 L32.6086957,67.3913043 Z M70.6521739,75 L75,75 L75,67.3913043 L70.6521739,67.3913043 L70.6521739,75 Z M67.3913043,67.3913043 L67.3913043,75 L63.0434783,75 L63.0434783,67.3913043 L67.3913043,67.3913043 Z M63.5869937,52.173913 L63.5869937,59.782683 L71.1954664,59.782683 L71.1954664,52.173913 L75,52.173913 L75,63.5869194 L59.7827573,63.5869194 L59.7827573,59.782683 L55.9785209,59.782683 L55.9785209,75 L52.173913,75 L52.173913,52.173913 L63.5869937,52.173913 Z" id="Fill-1" fill="#E3E3E3" mask="url(#mask-2)"></path>
                    </g>
                </g>
            </g>
        </g>
    </g>
</svg>