<?xml version="1.0" encoding="UTF-8"?>
<svg width="100px" height="100px" viewBox="0 0 100 100" version="1.1" xmlns="http://www.w3.org/2000/svg" xmlns:xlink="http://www.w3.org/1999/xlink">
    <!-- Generator: Sketch 61 (89581) - https://sketch.com -->
    <title>icon_dangmianfu备份</title>
    <desc>Created with Sketch.</desc>
    <defs>
        <rect id="path-1" x="0" y="0" width="100" height="100" rx="10"></rect>
    </defs>
    <g id="新版设计" stroke="none" stroke-width="1" fill="none" fill-rule="evenodd">
        <g id="我的账单-已结清" transform="translate(-60.000000, -926.000000)">
            <g id="icon_dangmianfu备份" transform="translate(60.000000, 926.000000)">
                <mask id="mask-2" fill="white">
                    <use xlink:href="#path-1"></use>
                </mask>
                <use id="4" fill="#F7F7F7" xlink:href="#path-1"></use>
                <path d="M42.1249738,32.2422855 L57.1249438,32.2422855 L57.1249438,28.7499925 L42.1249738,28.7499925 L42.1249738,32.2422855 Z M58.99994,41.8749663 C60.0355379,41.8755662 60.8746363,42.7152646 60.8740366,43.7511625 C60.8734363,44.7159606 60.1405377,45.523259 59.1799396,45.6162588 L58.99994,45.6249588 L39.6250787,45.6249588 C38.5894808,45.6246588 37.7503825,44.7846604 37.7509822,43.7490625 C37.7512825,42.7839644 38.484481,41.976966 39.4450791,41.8836662 L39.6250787,41.8749663 L58.99994,41.8749663 Z M52.1248538,50.6250487 C53.1604517,50.6256487 53.99955,51.4653471 53.9989503,52.500945 C53.99835,53.4660431 53.2657515,54.2730415 52.3051534,54.3663413 L52.1248538,54.3750412 L39.6250787,54.3750412 C38.5894808,54.3744413 37.7503825,53.5344429 37.7509822,52.499145 C37.7512825,51.5337469 38.484481,50.7270485 39.4450791,50.6337487 L39.6250787,50.6250487 L52.1248538,50.6250487 Z M52.1248538,59.3748313 C53.1604517,59.3754312 53.99955,60.2154296 53.9989503,61.2510275 C53.99835,62.2161256 53.2657515,63.023124 52.3051534,63.1164238 L52.1248538,63.1248238 L39.6250787,63.1248238 C38.5894808,63.1245238 37.7503825,62.2845254 37.7509822,61.2489275 C37.7512825,60.2838294 38.484481,59.476831 39.4450791,59.3835312 L39.6250787,59.3748313 L52.1248538,59.3748313 Z M57.1249438,36.2499775 L42.1249738,36.2499775 C40.0540779,36.2499775 38.3749813,34.8618803 38.3749813,32.7909844 L33.4588911,32.7909844 L33.4588911,70.6506087 L65.6986266,70.6506087 L65.6986266,32.7909844 L60.8749363,32.7909844 C60.8749363,34.8618803 59.1958396,36.2499775 57.1249438,36.2499775 L57.1249438,36.2499775 Z M57.1249438,25 C59.1958396,25 60.8749363,26.3802972 60.8749363,28.4511931 L68.3749213,28.4511931 C69.3409193,28.4514931 70.1485177,29.1849916 70.2412175,30.1461897 L70.2499175,30.3261893 L70.2499175,73.1250037 C70.2499175,74.0907018 69.516419,74.8983002 68.5549209,74.9913 L68.3749213,75 L30.8749963,75 C29.9092982,75 29.1013998,74.2665015 29.0087,73.3050034 L29,73.1250037 L29,30.3261893 C29,29.3604913 29.7337985,28.5525929 30.6949966,28.4598931 L30.8749963,28.4511931 L38.3749813,28.4511931 C38.3749813,26.3802972 40.0540779,25 42.1249738,25 L57.1249438,25 Z" id="Fill-1" fill="#E3E3E3" mask="url(#mask-2)"></path>
            </g>
        </g>
    </g>
</svg>